Coordinates
version=1
nRows=14
nColumns=40
inDegrees=yes

Units are S.I. units (second, meters, Newtons, ...)
If the header above contains a line with 'inDegrees', this indicates whether rotational values are in degrees (yes) or radians (no).

endheader
time	pelvis_tilt	pelvis_list	pelvis_rotation	pelvis_tx	pelvis_ty	pelvis_tz	hip_flexion_r	hip_adduction_r	hip_rotation_r	knee_angle_r	knee_angle_r_beta	ankle_angle_r	subtalar_angle_r	mtp_angle_r	hip_flexion_l	hip_adduction_l	hip_rotation_l	knee_angle_l	knee_angle_l_beta	ankle_angle_l	subtalar_angle_l	mtp_angle_l	lumbar_extension	lumbar_bending	lumbar_rotation	arm_flex_r	arm_add_r	arm_rot_r	elbow_flex_r	pro_sup_r	wrist_flex_r	wrist_dev_r	arm_flex_l	arm_add_l	arm_rot_l	elbow_flex_l	pro_sup_l	wrist_flex_l	wrist_dev_l
      1.25000000	     14.52001286	     -8.45402156	     -2.74993645	     -0.28465383	      1.07811066	     -1.04486758	     44.14885460	      0.35088009	     -4.32096821	     21.88016761	      0.38188097	     -4.39769578	      0.00000000	      0.00000000	     -7.23118004	     -2.39792737	    -13.24306378	     17.57425253	      0.30672857	      8.71212155	      0.00000000	      0.00000000	    -17.44121910	      2.98977189	      2.19488552	     87.02716766	     -8.83115406	     53.57667003	     25.01760574	     86.02087584	      0.00000000	      0.00000000	     87.48249347	    -14.64673866	     55.87678257	     26.25918279	     86.02021694	      0.00000000	      0.00000000
      1.25500000	     14.49288434	     -8.41296027	     -2.76974484	     -0.28447836	      1.07794334	     -1.04487617	     44.16300246	      0.34902338	     -4.25616715	     21.85491674	      0.38144025	     -4.48073429	      0.00000000	      0.00000000	     -7.10857065	     -2.39001124	    -13.35166385	     17.79196312	      0.31052834	      8.73760377	      0.00000000	      0.00000000	    -17.40670988	      2.95928316	      2.20711562	     87.03121150	     -8.83683636	     53.55116447	     24.97209096	     85.95749664	      0.00000000	      0.00000000	     87.48382361	    -14.62780176	     56.07932835	     26.25852018	     85.99427705	      0.00000000	      0.00000000
      1.26000000	     14.47375805	     -8.42123528	     -2.74521833	     -0.28425229	      1.07780705	     -1.04496058	     44.16012558	      0.36353491	     -4.24071817	     21.82222406	      0.38086966	     -4.39664591	      0.00000000	      0.00000000	     -7.01332339	     -2.43226869	    -13.39894580	     17.96685479	      0.31358077	      8.82947605	      0.00000000	      0.00000000	    -17.38198734	      2.99200285	      2.16532533	     87.04149834	     -8.85565608	     53.70624618	     25.02316862	     85.88749155	      0.00000000	      0.00000000	     87.48543700	    -14.63507126	     56.28496926	     26.23687621	     85.93006419	      0.00000000	      0.00000000
      1.26500000	     14.47739514	     -8.31117740	     -2.74273063	     -0.28410142	      1.07758458	     -1.04504466	     44.19720348	      0.28025025	     -4.15265372	     21.91544745	      0.38249672	     -4.16222794	      0.00000000	      0.00000000	     -6.96437967	     -2.30665361	    -13.22622543	     18.05883505	      0.31518613	      8.81420547	      0.00000000	      0.00000000	    -17.37460813	      2.88981515	      2.12522832	     87.15434092	     -8.94795249	     54.64024293	     25.12115471	     84.56002854	      0.00000000	      0.00000000	     87.55783193	    -14.61501420	     57.00999859	     26.08555547	     84.59994144	      0.00000000	      0.00000000
      1.27000000	     14.48971145	     -8.32635547	     -2.71903253	     -0.28388784	      1.07758412	     -1.04511689	     44.15151235	      0.29368716	     -4.16591417	     21.87193803	      0.38173733	     -4.34367193	      0.00000000	      0.00000000	     -6.95530907	     -2.34795084	    -13.36409832	     18.12060837	      0.31626428	      8.81391764	      0.00000000	      0.00000000	    -17.38386020	      2.92450885	      2.09193615	     86.99241806	     -8.82080922	     53.48190290	     25.08226148	     85.99560741	      0.00000000	      0.00000000	     87.44641081	    -14.53070318	     56.07749342	     26.01346473	     86.02317652	      0.00000000	      0.00000000
      1.27500000	     14.45938019	     -8.29483304	     -2.68558105	     -0.28371801	      1.07739756	     -1.04523427	     44.18825999	      0.24881221	     -4.19335446	     21.89846386	      0.38220030	     -4.33416510	      0.00000000	      0.00000000	     -6.84811123	     -2.35067662	    -13.40924101	     18.28093570	      0.31906252	      8.86251004	      0.00000000	      0.00000000	    -17.34944688	      2.92374285	      2.02886744	     86.99661273	     -8.80956818	     53.54682753	     25.08376243	     85.97060418	      0.00000000	      0.00000000	     87.42349203	    -14.53831381	     56.11005976	     25.99806984	     85.99111551	      0.00000000	      0.00000000
      1.28000000	     14.47034183	     -8.25139200	     -2.67981411	     -0.28354492	      1.07729121	     -1.04532996	     44.17811737	      0.22075452	     -4.20196136	     21.90639160	      0.38233866	     -4.31503255	      0.00000000	      0.00000000	     -6.81123235	     -2.31777916	    -13.47345085	     18.38868656	      0.32094313	      8.87434893	      0.00000000	      0.00000000	    -17.36067679	      2.88939733	      2.01067270	     87.00383308	     -8.81592889	     53.54687930	     25.12068283	     86.02796619	      0.00000000	      0.00000000	     87.43653523	    -14.49672361	     56.11859217	     25.94647413	     86.00732921	      0.00000000	      0.00000000
      1.28500000	     14.48327307	     -8.25957870	     -2.63977014	     -0.28329177	      1.07718813	     -1.04541902	     44.16286619	      0.21525008	     -4.19183472	     21.93130379	      0.38277346	     -4.32716930	      0.00000000	      0.00000000	     -6.76716539	     -2.35189607	    -13.46115255	     18.53874770	      0.32356219	      8.96390657	      0.00000000	      0.00000000	    -17.36348149	      2.92587948	      1.95404080	     86.99930984	     -8.78234227	     53.53920701	     25.13206707	     86.00208945	      0.00000000	      0.00000000	     87.42907978	    -14.48124880	     56.12594109	     25.88474311	     85.96888478	      0.00000000	      0.00000000
      1.29000000	     14.47846991	     -8.25528405	     -2.60141781	     -0.28311283	      1.07704679	     -1.04552079	     44.15850531	      0.19506581	     -4.26957828	     21.93413541	      0.38282288	     -4.34019219	      0.00000000	      0.00000000	     -6.66848377	     -2.39015407	    -13.52777661	     18.75457240	      0.32732904	      9.06232595	      0.00000000	      0.00000000	    -17.37015223	      2.94074534	      1.90588187	     87.00017575	     -8.81053414	     53.58607846	     25.23526530	     85.90878052	      0.00000000	      0.00000000	     87.47562157	    -14.49262548	     56.43881923	     25.90612605	     85.89230756	      0.00000000	      0.00000000
      1.29500000	     14.48486029	     -8.23629263	     -2.56460945	     -0.28290581	      1.07698477	     -1.04561164	     44.14265479	      0.16812211	     -4.30645459	     21.93801886	      0.38289066	     -4.26552574	      0.00000000	      0.00000000	     -6.65925687	     -2.38916433	    -13.55858529	     18.78686131	      0.32789259	      9.03906337	      0.00000000	      0.00000000	    -17.36764178	      2.94055666	      1.85725298	     86.99413285	     -8.77455021	     53.54080864	     25.16766563	     86.05749473	      0.00000000	      0.00000000	     87.43521811	    -14.47237145	     56.21693866	     25.88266883	     85.98444375	      0.00000000	      0.00000000
      1.30000000	     14.49674401	     -8.23100021	     -2.53446398	     -0.28263982	      1.07689860	     -1.04570096	     44.12261271	      0.15588808	     -4.30690161	     21.97498874	      0.38353591	     -4.31106788	      0.00000000	      0.00000000	     -6.65286151	     -2.40141976	    -13.58116459	     18.85977241	      0.32916512	      9.07736440	      0.00000000	      0.00000000	    -17.37728619	      2.96256485	      1.80740078	     86.99929092	     -8.76332310	     53.60807538	     25.18999284	     86.04439554	      0.00000000	      0.00000000	     87.41721686	    -14.48068758	     56.17861080	     25.90211357	     85.98524680	      0.00000000	      0.00000000
      1.30500000	     14.50329349	     -8.21055177	     -2.47415789	     -0.28244357	      1.07681860	     -1.04588342	     44.11245785	      0.09794943	     -4.38685224	     21.98034001	      0.38362930	     -4.31916073	      0.00000000	      0.00000000	     -6.59389444	     -2.40165138	    -13.52456547	     18.99976446	      0.33160845	      9.10642266	      0.00000000	      0.00000000	    -17.37895769	      2.97348626	      1.74319900	     86.97356243	     -8.75729498	     53.59456446	     25.17116114	     86.00779615	      0.00000000	      0.00000000	     87.40219564	    -14.43583334	     56.17242727	     25.86161477	     85.92164586	      0.00000000	      0.00000000
      1.31000000	     14.50546037	     -8.22538130	     -2.44480991	     -0.28226135	      1.07666660	     -1.04593906	     44.11385324	      0.10727830	     -4.38606010	     22.01079311	      0.38416081	     -4.33596750	      0.00000000	      0.00000000	     -6.52846316	     -2.45867208	    -13.62751872	     19.15595294	      0.33433445	      9.16911289	      0.00000000	      0.00000000	    -17.38977521	      3.00575757	      1.71372366	     86.98268661	     -8.76500572	     53.60697772	     25.19705155	     86.07593911	      0.00000000	      0.00000000	     87.40270263	    -14.40251406	     56.11725405	     25.83261613	     85.93943119	      0.00000000	      0.00000000
      1.31500000	     14.49208054	     -8.22069676	     -2.41725135	     -0.28203595	      1.07651976	     -1.04603606	     44.12991835	      0.09600268	     -4.41735175	     22.03322432	      0.38455231	     -4.34018825	      0.00000000	      0.00000000	     -6.43395398	     -2.48240538	    -13.61465684	     19.33534255	      0.33746539	      9.22942054	      0.00000000	      0.00000000	    -17.37073058	      3.02416118	      1.68765849	     86.98310325	     -8.77346441	     53.67747362	     25.17099798	     86.05203911	      0.00000000	      0.00000000	     87.38298708	    -14.37339508	     56.03642190	     25.84221775	     85.94591036	      0.00000000	      0.00000000
